<?xml version="1.0" standalone="no"?>
<svg xmlns:xlink="http://www.w3.org/1999/xlink" id="wave" style="transform:rotate(180deg); transition: 0.3s" viewBox="0 0 1440 100" version="1.1" xmlns="http://www.w3.org/2000/svg"><defs><linearGradient id="sw-gradient-0" x1="0" x2="0" y1="1" y2="0"><stop stop-color="rgba(255, 249, 234, 1)" offset="0%"/><stop stop-color="rgba(255, 249, 234, 1)" offset="100%"/></linearGradient></defs><path style="transform:translate(0, 0px); opacity:1" fill="url(#sw-gradient-0)" d="M0,70L26.7,58.3C53.3,47,107,23,160,16.7C213.3,10,267,20,320,33.3C373.3,47,427,63,480,70C533.3,77,587,73,640,65C693.3,57,747,43,800,36.7C853.3,30,907,30,960,28.3C1013.3,27,1067,23,1120,18.3C1173.3,13,1227,7,1280,16.7C1333.3,27,1387,53,1440,58.3C1493.3,63,1547,47,1600,41.7C1653.3,37,1707,43,1760,41.7C1813.3,40,1867,30,1920,26.7C1973.3,23,2027,27,2080,28.3C2133.3,30,2187,30,2240,33.3C2293.3,37,2347,43,2400,50C2453.3,57,2507,63,2560,58.3C2613.3,53,2667,37,2720,28.3C2773.3,20,2827,20,2880,20C2933.3,20,2987,20,3040,25C3093.3,30,3147,40,3200,40C3253.3,40,3307,30,3360,28.3C3413.3,27,3467,33,3520,35C3573.3,37,3627,33,3680,41.7C3733.3,50,3787,70,3813,80L3840,90L3840,100L3813.3,100C3786.7,100,3733,100,3680,100C3626.7,100,3573,100,3520,100C3466.7,100,3413,100,3360,100C3306.7,100,3253,100,3200,100C3146.7,100,3093,100,3040,100C2986.7,100,2933,100,2880,100C2826.7,100,2773,100,2720,100C2666.7,100,2613,100,2560,100C2506.7,100,2453,100,2400,100C2346.7,100,2293,100,2240,100C2186.7,100,2133,100,2080,100C2026.7,100,1973,100,1920,100C1866.7,100,1813,100,1760,100C1706.7,100,1653,100,1600,100C1546.7,100,1493,100,1440,100C1386.7,100,1333,100,1280,100C1226.7,100,1173,100,1120,100C1066.7,100,1013,100,960,100C906.7,100,853,100,800,100C746.7,100,693,100,640,100C586.7,100,533,100,480,100C426.7,100,373,100,320,100C266.7,100,213,100,160,100C106.7,100,53,100,27,100L0,100Z"/></svg>